<mxfile host="app.diagrams.net" modified="2020-07-22T21:36:07.729Z" agent="5.0 (Macintosh; Intel Mac OS X 10_15_6) AppleWebKit/605.1.15 (KHTML, like Gecko) Version/14.0 Safari/605.1.15" etag="-fkDdefeXy2S5OVkbWQ0" version="13.5.1" type="github">
  <diagram id="S--r0rCahtqjIh3wsLop" name="Page-1">
    <mxGraphModel dx="584" dy="454" grid="1" gridSize="10" guides="1" tooltips="1" connect="1" arrows="1" fold="1" page="1" pageScale="1" pageWidth="850" pageHeight="1100" math="0" shadow="0">
      <root>
        <mxCell id="0" />
        <mxCell id="1" parent="0" />
        <mxCell id="9EJtn_C2GVnp_4WDPb4I-4" value="" style="rounded=0;whiteSpace=wrap;html=1;align=left;labelBackgroundColor=#808080;fillColor=#E6E6E6;" vertex="1" parent="1">
          <mxGeometry x="520" y="240" width="200" height="200" as="geometry" />
        </mxCell>
        <mxCell id="9EJtn_C2GVnp_4WDPb4I-3" value="&lt;font style=&quot;font-size: 18px&quot;&gt;AWS&lt;/font&gt;" style="text;html=1;align=center;verticalAlign=middle;resizable=0;points=[];autosize=1;fontStyle=1" vertex="1" parent="1">
          <mxGeometry x="520" y="250" width="60" height="20" as="geometry" />
        </mxCell>
        <mxCell id="9EJtn_C2GVnp_4WDPb4I-11" style="edgeStyle=orthogonalEdgeStyle;rounded=0;orthogonalLoop=1;jettySize=auto;html=1;exitX=0;exitY=0.75;exitDx=0;exitDy=0;entryX=1;entryY=0.75;entryDx=0;entryDy=0;" edge="1" parent="1" source="9EJtn_C2GVnp_4WDPb4I-5" target="9EJtn_C2GVnp_4WDPb4I-9">
          <mxGeometry relative="1" as="geometry" />
        </mxCell>
        <mxCell id="9EJtn_C2GVnp_4WDPb4I-5" value="&lt;b&gt;Application&lt;br&gt;Framework&lt;/b&gt;&lt;br&gt;&lt;br&gt;&lt;br&gt;(Streamlit)" style="rounded=0;whiteSpace=wrap;html=1;align=center;" vertex="1" parent="1">
          <mxGeometry x="540" y="290" width="160" height="130" as="geometry" />
        </mxCell>
        <mxCell id="9EJtn_C2GVnp_4WDPb4I-10" style="edgeStyle=orthogonalEdgeStyle;rounded=0;orthogonalLoop=1;jettySize=auto;html=1;exitX=1;exitY=0.25;exitDx=0;exitDy=0;entryX=0;entryY=0.25;entryDx=0;entryDy=0;" edge="1" parent="1" source="9EJtn_C2GVnp_4WDPb4I-9" target="9EJtn_C2GVnp_4WDPb4I-5">
          <mxGeometry relative="1" as="geometry" />
        </mxCell>
        <mxCell id="9EJtn_C2GVnp_4WDPb4I-9" value="&lt;b&gt;Client&lt;/b&gt;&lt;br&gt;&lt;br style=&quot;font-size: 11px&quot;&gt;&lt;font size=&quot;1&quot;&gt;(Streamlit generated&lt;br&gt;HTML + CSS)&lt;/font&gt;" style="rounded=0;whiteSpace=wrap;html=1;align=center;" vertex="1" parent="1">
          <mxGeometry x="280" y="290" width="160" height="130" as="geometry" />
        </mxCell>
      </root>
    </mxGraphModel>
  </diagram>
</mxfile>
